Coordinates
version=1
nRows=13
nColumns=38
inDegrees=no

Units are S.I. units (second, meters, Newtons, ...)
If the header above contains a line with 'inDegrees', this indicates whether rotational values are in degrees (yes) or radians (no).

endheader
time	pelvis_tilt	pelvis_list	pelvis_rotation	pelvis_tx	pelvis_ty	pelvis_tz	hip_flexion_r	hip_adduction_r	hip_rotation_r	knee_angle_r	ankle_angle_r	subtalar_angle_r	mtp_angle_r	hip_flexion_l	hip_adduction_l	hip_rotation_l	knee_angle_l	ankle_angle_l	subtalar_angle_l	mtp_angle_l	lumbar_extension	lumbar_bending	lumbar_rotation	arm_flex_r	arm_add_r	arm_rot_r	elbow_flex_r	pro_sup_r	wrist_flex_r	wrist_dev_r	arm_flex_l	arm_add_l	arm_rot_l	elbow_flex_l	pro_sup_l	wrist_flex_l	wrist_dev_l
0	-2.87827	1.38599	1.46717	0.695592	1.00521	0.991996	0.777309	-0.0525098	-0.0332399	0.667133	0.173576	0	0	0.0677121	-0.145043	-0.195755	0.640733	0.222863	0	0	0.202719	0.115947	-0.288176	-0.226813	-0.267021	1.0861	0.263669	0.784162	0	0	0.0318102	-0.410746	0.408564	0.610436	1.37088	0	0
0.01	-2.87461	1.38005	1.46852	0.694935	0.99302	0.990806	0.782128	-0.0463084	-0.0241627	0.688827	0.159066	0	0	0.0700525	-0.149887	-0.184422	0.65256	0.213825	0	0	0.210911	0.117944	-0.29393	-0.230861	-0.266855	1.06908	0.262615	0.799927	0	0	0.0248324	-0.408949	0.406419	0.609186	1.36886	0	0
0.02	-2.85648	1.37629	1.45393	0.694149	0.979845	0.99017	0.782676	-0.0387126	-0.022869	0.704724	0.143384	0	0	0.0684641	-0.158157	-0.176865	0.66329	0.201288	0	0	0.217962	0.123416	-0.298286	-0.235594	-0.267432	1.05138	0.261097	0.81519	0	0	0.0176048	-0.404417	0.405228	0.604101	1.36664	0	0
0.03	-2.82969	1.37403	1.42937	0.693295	0.966517	0.990048	0.781029	-0.0306531	-0.0241838	0.714281	0.129325	0	0	0.0659975	-0.168008	-0.169032	0.675826	0.186636	0	0	0.222782	0.131415	-0.301362	-0.238936	-0.268169	1.03352	0.258681	0.830508	0	0	0.0114046	-0.398075	0.405212	0.595694	1.36597	0	0
0.04	-2.79702	1.37296	1.39781	0.692437	0.95316	0.990408	0.777524	-0.0216973	-0.0268256	0.720416	0.117316	0	0	0.0635827	-0.178814	-0.160415	0.691361	0.171617	0	0	0.225241	0.1412	-0.303597	-0.240381	-0.268913	1.01561	0.255278	0.84636	0	0	0.00558652	-0.390446	0.405323	0.585481	1.36552	0	0
0.05	-2.76227	1.37309	1.36306	0.691513	0.939722	0.991199	0.771686	-0.0112058	-0.0311055	0.726072	0.0953481	0	0	0.0610793	-0.1895	-0.153139	0.708911	0.149775	0	0	0.226473	0.151197	-0.306099	-0.232651	-0.277022	1.08238	0.257135	0.776187	0	0	-0.00144342	-0.383002	0.40686	0.574404	1.36135	0	0
0.06	-2.73219	1.37399	1.3318	0.690498	0.926265	0.992176	0.765532	-0.000379278	-0.0364549	0.736165	0.0763982	0	0	0.0598477	-0.198237	-0.146316	0.729922	0.127861	0	0	0.225386	0.160476	-0.305584	-0.23142	-0.278013	1.06727	0.253962	0.790276	0	0	-0.00813145	-0.375103	0.40754	0.564333	1.3575	0	0
0.07	-2.71053	1.37518	1.3083	0.689516	0.912927	0.993233	0.759817	0.00874351	-0.0405915	0.749185	0.0678149	0	0	0.0618377	-0.203533	-0.137221	0.75592	0.111863	0	0	0.223142	0.168055	-0.304554	-0.228101	-0.279236	1.05509	0.251135	0.804498	0	0	-0.0171049	-0.365876	0.399029	0.556054	1.3621	0	0
0.08	-2.69626	1.37587	1.29071	0.688368	0.899775	0.994325	0.754458	0.0176574	-0.039082	0.760889	0.0591801	0	0	0.0681126	-0.207276	-0.128406	0.786263	0.0843759	0	0	0.221519	0.174199	-0.300883	-0.221746	-0.282723	1.07181	0.250889	0.789148	0	0	-0.0252797	-0.358202	0.397864	0.54757	1.35868	0	0
0.09	-2.68713	1.37498	1.27822	0.687219	0.886835	0.995336	0.750492	0.0259156	-0.0347191	0.772639	0.0537122	0	0	0.0802038	-0.209572	-0.11728	0.820584	0.0520967	0	0	0.221106	0.179642	-0.294101	-0.221041	-0.281334	1.02856	0.247967	0.832679	0	0	-0.0311889	-0.352292	0.407304	0.539316	1.34724	0	0
0.1	-2.67665	1.37365	1.2653	0.686171	0.874119	0.996354	0.745883	0.0333169	-0.0325602	0.783953	0.0515801	0	0	0.096187	-0.210528	-0.101754	0.857932	0.0242089	0	0	0.220656	0.184905	-0.289188	-0.213351	-0.285431	1.04548	0.249821	0.816078	0	0	-0.0389929	-0.344666	0.407148	0.532173	1.34519	0	0
0.11	-2.66289	1.37232	1.25009	0.685228	0.861646	0.997351	0.740086	0.0394476	-0.0353644	0.793707	0.0514276	0	0	0.115128	-0.210749	-0.0831803	0.89797	-0.00538541	0	0	0.219122	0.190596	-0.283962	-0.204785	-0.290089	1.06072	0.253454	0.799818	0	0	-0.0455279	-0.337377	0.409459	0.525843	1.34263	0	0
0.12	-2.64487	1.37156	1.23167	0.684413	0.84947	0.998332	0.732072	0.0445406	-0.0435625	0.800583	0.0524413	0	0	0.135954	-0.210261	-0.061879	0.940944	-0.0312587	0	0	0.215839	0.196618	-0.277912	-0.195525	-0.295275	1.07315	0.259147	0.783325	0	0	-0.0504626	-0.330509	0.413957	0.520144	1.3397	0	0
